<?xml version="1.0" encoding="utf-8"?>
<!-- Generator: Adobe Illustrator 26.5.0, SVG Export Plug-In . SVG Version: 6.00 Build 0)  -->
<svg version="1.1" id="Layer_1" xmlns="http://www.w3.org/2000/svg" xmlns:xlink="http://www.w3.org/1999/xlink" x="0px" y="0px"
	 viewBox="0 0 31.9 32" style="enable-background:new 0 0 31.9 32;" xml:space="preserve">
<style type="text/css">
	.st0{fill:#0094D4;}
</style>
<g>
	<path class="st0" d="M11.9,14.2c-0.1,0-0.3,0-0.5,0c-0.2,0-0.4-0.1-0.5-0.2v5.8c0.5,0,0.9,0,1.2-0.1c0.3-0.1,0.4-0.4,0.4-0.8v-3.7
		c0-0.3-0.1-0.6-0.2-0.7C12.2,14.3,12,14.2,11.9,14.2z"/>
	<path class="st0" d="M10,14.1c-0.1,0-0.2,0-0.3,0c-0.1,0-0.1,0-0.1,0c0,0-0.1,0-0.4,0c-0.2,0-0.6,0-1,0c-0.3,0-0.5,0-0.7,0.1
		c-0.2,0.1-0.4,0.2-0.5,0.3c-0.1,0.1-0.3,0.2-0.3,0.4c-0.1,0.1-0.2,0.3-0.2,0.4c0,0.1-0.1,0.3-0.1,0.4c0,0.1,0,0.2,0,0.3
		c0,0.1,0,0.1,0,0.2v2.7c0,0.3,0.1,0.4,0.2,0.6c0.1,0.1,0.2,0.2,0.4,0.2c0.1,0,0.3,0.1,0.5,0.1c0.2,0.1,0.4,0.1,0.5,0.2v-3.3
		c0-0.3,0-0.5,0.1-0.6c0-0.2,0.1-0.3,0.2-0.3c0.1-0.1,0.3-0.1,0.4-0.2c0.2,0,0.4,0,0.7,0c0.2,0,0.4,0,0.5-0.1
		c0.1-0.1,0.2-0.2,0.3-0.3c0-0.1,0.1-0.3,0.1-0.4c0-0.1,0-0.2,0-0.4C10,14.2,10,14.2,10,14.1z"/>
	<path class="st0" d="M2.5,12.2c-0.3,0-0.6,0-0.9,0.1c-0.3,0-0.5,0.1-0.6,0.1c-0.2,0-0.3,0.1-0.4,0.2c-0.1,0.1-0.2,0.1-0.3,0.2
		c0,0-0.1,0.1-0.2,0.2C0,12.9,0,12.9,0,12.9v6c0,0.3,0.1,0.6,0.2,0.7c0.1,0.1,0.2,0.2,0.4,0.2s0.3,0,0.5,0c0.2,0,0.4,0.1,0.5,0.2
		v-2.4c0.3,0.1,0.7,0.1,1.1,0.1c0.3,0,0.7,0,1-0.1c0.3-0.1,0.6-0.2,0.9-0.4c0.3-0.2,0.5-0.5,0.7-0.9c0.2-0.4,0.2-0.8,0.2-1.3
		c0-1.1-0.2-1.8-0.7-2.3C4.3,12.4,3.5,12.2,2.5,12.2z M3.7,15.8c-0.1,0.2-0.2,0.4-0.4,0.5c-0.2,0.1-0.3,0.2-0.5,0.2
		c-0.2,0.1-0.3,0.1-0.5,0.1c-0.2,0-0.3,0-0.5-0.1c-0.1,0-0.2,0-0.4-0.1V15c0-0.9,0-1.4,0-1.4h0c0.1,0,0.1,0,0.2,0c0,0,0.2,0,0.3,0
		c0.2,0,0.3,0,0.5,0c0.1,0,0.3,0,0.5,0.1c0.2,0.1,0.3,0.1,0.4,0.2c0.1,0.1,0.2,0.2,0.3,0.4c0.1,0.2,0.1,0.4,0.1,0.7
		C3.9,15.3,3.8,15.6,3.7,15.8z"/>
	<path class="st0" d="M11.7,12.2c-0.2,0-0.4,0.1-0.6,0.2c-0.2,0.2-0.2,0.4-0.2,0.6c0,0.2,0.1,0.4,0.2,0.6c0.2,0.2,0.4,0.2,0.6,0.2
		c0.2,0,0.4-0.1,0.6-0.2c0.2-0.2,0.2-0.4,0.2-0.6c0-0.2-0.1-0.4-0.2-0.6C12.1,12.2,11.9,12.2,11.7,12.2z"/>
	<path class="st0" d="M15.8,14.1c-1.4,0-2.1,0.3-2.1,0.7v5c0.2,0,0.4,0,0.6,0c0.2,0,0.3-0.1,0.5-0.1s0.3-0.2,0.3-0.3
		c0.1-0.1,0.1-0.3,0.1-0.5v-2.8c0-0.2,0-0.3,0-0.4c0.1,0,0.3-0.1,0.7-0.1c0.8-0.1,1.3,0.1,1.4,0.6v0.5v0v2.2c0,0.2,0,0.4,0.1,0.5
		c0.1,0.1,0.2,0.2,0.3,0.3c0.2,0.1,0.3,0.1,0.5,0.1c0.2,0,0.4,0,0.6,0v-3.7C18.8,14.7,17.8,14.1,15.8,14.1z"/>
	<path class="st0" d="M31.9,12.7c-0.1-0.6-0.3-1.3-0.5-1.8H26c-0.5,0-1.4,0-1.5,0c-0.2,1.1-0.4,2.2-0.5,3.4c0.5,0.1,1,0.2,1.6,0.3
		l0.4-1.2c0.1-0.2,0.2-0.3,0.3-0.3c0.5-0.1,0.9-0.1,3.3,0V13c-1.4,2.3-2.9,4.9-3.4,6.1c-0.2,0.4-0.3,1-0.2,2.1c0.4,0,2.1,0,2.6-0.1
		c0-0.3,0-1.4,0.1-1.9C29,17.7,30.1,15.4,31.9,12.7z"/>
	<path class="st0" d="M21.6,12.7c-0.2,0-0.4,0-0.6,0c-0.2,0-0.3,0.1-0.5,0.1c-0.2,0.1-0.3,0.2-0.3,0.3C20,13.3,20,13.5,20,13.7v4.4
		c0,0.3,0.1,0.7,0.2,0.9c0.2,0.3,0.4,0.5,0.6,0.6c0.3,0.1,0.6,0.2,0.9,0.3c0.3,0,0.7,0,1-0.1c0.2-0.1,0.3-0.2,0.3-0.5
		c0.1-0.3,0.1-0.5,0-0.8c0,0-0.1,0-0.3,0c-0.1,0-0.3,0-0.4,0c-0.1,0-0.3,0-0.4,0c-0.1,0-0.3-0.1-0.3-0.2c-0.1-0.1-0.1-0.2-0.1-0.4
		l0-2.4c0.1,0,0.3,0,0.5,0c0.2,0,0.4,0,0.5-0.1c0.2-0.1,0.3-0.1,0.4-0.2c0.1-0.1,0.2-0.2,0.2-0.3c0.1-0.1,0.1-0.2,0.1-0.3
		c0-0.1,0-0.2,0.1-0.3c0-0.1,0-0.2,0-0.2c0,0,0-0.1,0-0.1h-1.8V12.7z"/>
</g>
</svg>
